<svg height="64" viewBox="0 0 20 20" width="64" xmlns="http://www.w3.org/2000/svg"><path d="m2.77 12.54.83-6.89h.07l.82 6.89h-1.71zm2.5 6.77h1.66l-2.35-16.99h-1.82l-2.35 16.99h1.54l.49-4.15h2.33l.48 4.15z" fill="#137bbb"/><path d="m7.78 2.37v16.91h1.53v-5.36h1.23c1.68 0 2.75-2.25 2.75-5.75 0-3.55-1.03-5.8-2.67-5.8h-2.85zm1.53 2.73h.92c1 0 1.5 1.01 1.5 3.04s-.5 3.02-1.5 3.02h-.92z" fill="#9ac123"/><path d="m19.17 19.23v-2.84h-1.74v-11.15h1.74v-2.84h-5.13v2.84h1.74v11.15h-1.74v2.84z" fill="#c44d58"/></svg>