<?xml version="1.0"?>
<svg width="64" height="64"  viewBox="0 0 20 20" xmlns="http://www.w3.org/2000/svg" xmlns:svg="http://www.w3.org/2000/svg">
 <g class="layer">
  <path d="m2.77,12.54l0.83,-6.89l0.07,0l0.82,6.89l-1.71,0zm2.5,6.77l1.66,0l-2.35,-16.99l-1.82,0l-2.35,16.99l1.54,0l0.49,-4.15l2.33,0l0.48,4.15z" fill="#137bbb" id="svg_1" transform="matrix(1 0 0 1 0 0)"/>
  <path d="m7.78,2.37l0,16.91l1.53,0l0,-5.36l1.23,0c1.68,0 2.75,-2.25 2.75,-5.75c0,-3.55 -1.03,-5.8 -2.67,-5.8l-2.85,0zm1.53,2.73l0.92,0c1,0 1.5,1.01 1.5,3.04c0,2.03 -0.5,3.02 -1.5,3.02l-0.92,0l0,-6.06z" fill="#9ac123" id="svg_2"/>
  <path d="m19.17,19.23l0,-2.84l-1.74,0l0,-11.15l1.74,0l0,-2.84l-5.13,0l0,2.84l1.74,0l0,11.15l-1.74,0l0,2.84l5.13,0z" fill="#c44d58" id="svg_3" transform="matrix(1 0 0 1 0 0)"/>
 </g>
</svg>